<svg width="34" height="22" viewBox="0 0 34 22" fill="none" xmlns="http://www.w3.org/2000/svg">
<path id="Vector" d="M2.95494 0.650391C1.57131 0.650391 0.434937 1.78677 0.434937 3.17039V19.0104C0.434937 20.394 1.57131 21.5304 2.95494 21.5304H31.0349C32.4186 21.5304 33.5549 20.394 33.5549 19.0104V3.17039C33.5549 1.78677 32.4186 0.650391 31.0349 0.650391H2.95494ZM2.95494 2.09039H31.0349C31.6457 2.09039 32.1149 2.55961 32.1149 3.17039V4.25039H1.87494V3.17039C1.87494 2.55961 2.34416 2.09039 2.95494 2.09039ZM1.87494 5.69039H32.1149V7.85039H1.87494V5.69039ZM1.87494 9.29039H32.1149V19.0104C32.1149 19.6212 31.6457 20.0904 31.0349 20.0904H2.95494C2.34416 20.0904 1.87494 19.6212 1.87494 19.0104V9.29039ZM22.0349 12.1592C20.4529 12.1592 19.1549 13.4683 19.1549 15.0504C19.1549 16.6324 20.4529 17.9304 22.0349 17.9304C22.7129 17.9304 23.3399 17.6872 23.8349 17.2892C24.3285 17.6883 24.9547 17.9304 25.6349 17.9304C27.217 17.9304 28.5149 16.6324 28.5149 15.0504C28.5149 13.4683 27.217 12.1704 25.6349 12.1704C24.9593 12.1704 24.3382 12.4094 23.8462 12.8004C23.3501 12.399 22.716 12.1592 22.0349 12.1592ZM22.0349 13.6104C22.8387 13.6104 23.4749 14.2466 23.4749 15.0504C23.4749 15.8542 22.8387 16.4792 22.0349 16.4792C21.2311 16.4792 20.5949 15.8542 20.5949 15.0504C20.5949 14.2466 21.2311 13.6104 22.0349 13.6104ZM25.6349 13.6104C26.4387 13.6104 27.0749 14.2466 27.0749 15.0504C27.0749 15.8542 26.4387 16.4904 25.6349 16.4904C25.2763 16.4904 24.9526 16.3579 24.7012 16.1417C24.8421 15.803 24.9149 15.4373 24.9149 15.0504C24.9149 14.6671 24.8397 14.2952 24.7012 13.9592C24.9526 13.7461 25.2763 13.6104 25.6349 13.6104Z" fill="white"/>
</svg>
