<svg width="27" height="33" viewBox="0 0 27 33" fill="none" xmlns="http://www.w3.org/2000/svg">
<path id="Vector" d="M26.0267 6.44589C26.1624 6.31125 26.2389 6.1283 26.2396 5.93725C26.2402 5.74616 26.165 5.56267 26.0303 5.42709C25.8957 5.29152 25.7128 5.21495 25.5217 5.2143C25.3306 5.21361 25.1472 5.28885 25.0115 5.42349L12.2315 18.0991V8.92629C12.2315 8.73535 12.1557 8.55218 12.0207 8.41718C11.8857 8.28215 11.7025 8.20629 11.5115 8.20629C11.3206 8.20629 11.1375 8.28215 11.0024 8.41718C10.8674 8.55218 10.7915 8.73535 10.7915 8.92629V17.8399L7.08715 14.1787C7.02127 14.1068 6.94149 14.049 6.85261 14.0089C6.76372 13.9688 6.6676 13.9471 6.57011 13.9452C6.47263 13.9434 6.37575 13.9613 6.28539 13.998C6.19507 14.0347 6.11309 14.0894 6.04451 14.1587C5.97593 14.228 5.92211 14.3106 5.8864 14.4013C5.85065 14.492 5.83373 14.5891 5.83665 14.6865C5.83953 14.784 5.86221 14.8799 5.90329 14.9684C5.94436 15.0568 6.00297 15.136 6.07555 15.2011L10.7915 19.8811V26.2819C10.3892 26.2568 9.98878 26.2063 9.59275 26.1307C8.27972 25.8775 7.03034 25.365 5.91769 24.6233C4.80503 23.8815 3.85147 22.9254 3.11275 21.8107C2.39069 20.7284 1.89141 19.5132 1.64395 18.2359C1.39439 16.981 1.39439 15.6892 1.64395 14.4343C1.89141 13.157 2.39069 11.9418 3.11275 10.8595C3.49089 10.3007 3.92516 9.78198 4.40875 9.31149L11.5115 2.26269L17.6675 8.38269C17.806 8.5173 17.9923 8.59142 18.1853 8.58872C18.3784 8.58602 18.5625 8.50671 18.6971 8.36829C18.8318 8.22984 18.9059 8.04361 18.9032 7.85051C18.9005 7.6574 18.8212 7.4733 18.6827 7.33869L12.0191 0.73989C11.8843 0.605786 11.7018 0.530518 11.5115 0.530518C11.3214 0.530518 11.1389 0.605786 11.0039 0.73989L3.38995 8.29989C2.83933 8.84835 2.34598 9.45146 1.91755 10.0999C0.89547 11.641 0.26511 13.4084 0.0812936 15.2485C-0.102558 17.0886 0.165714 18.9458 0.862746 20.6587C1.44965 22.0698 2.31146 23.3501 3.39801 24.4249C4.48456 25.4997 5.77412 26.3476 7.19155 26.9191C7.8794 27.1946 8.59177 27.4043 9.31915 27.5455C9.80594 27.6354 10.2976 27.6967 10.7915 27.7291V32.1247C10.7915 32.3156 10.8674 32.4988 11.0024 32.6338C11.1375 32.7688 11.3206 32.8447 11.5115 32.8447C11.7025 32.8447 11.8857 32.7688 12.0207 32.6338C12.1557 32.4988 12.2315 32.3156 12.2315 32.1247V27.7291C12.7255 27.6967 13.2172 27.6354 13.7039 27.5455C14.4326 27.4048 15.1463 27.195 15.8351 26.9191C17.6039 26.2149 19.1676 25.0778 20.3828 23.6123C21.598 22.1468 22.4258 20.3997 22.7903 18.5311C23.0736 17.0929 23.0736 15.6133 22.7903 14.1751C22.7764 14.0785 22.7429 13.9857 22.692 13.9025C22.6411 13.8192 22.5738 13.7471 22.4941 13.6907C22.4145 13.6342 22.3243 13.5946 22.2288 13.5741C22.1334 13.5536 22.0348 13.5527 21.939 13.5716C21.8432 13.5904 21.7523 13.6285 21.6716 13.6835C21.591 13.7386 21.5225 13.8094 21.4701 13.8918C21.4178 13.9742 21.3827 14.0664 21.3671 14.1627C21.3514 14.259 21.3555 14.3576 21.3791 14.4523C21.6239 15.7077 21.6239 16.9985 21.3791 18.2539C21.2555 18.8858 21.071 19.5042 20.8283 20.1007C20.3208 21.3354 19.5704 22.4556 18.6215 23.3947C17.2028 24.8021 15.3967 25.7547 13.4339 26.1307C13.0367 26.2063 12.6351 26.2568 12.2315 26.2819V20.1259L26.0267 6.44589Z" fill="white"/>
</svg>
