<svg width="22" height="27" viewBox="0 0 22 27" fill="none" xmlns="http://www.w3.org/2000/svg">
<path id="Vector" d="M20.4176 3.59428C20.8335 5.11863 20.8098 6.98306 20.3489 8.84592C19.9251 10.5593 19.1667 12.1089 18.2149 13.2377C20.0648 14.7399 21.0797 16.7095 21.0797 18.8137C21.0797 21.0041 19.9804 23.0496 17.9829 24.5724C16.0501 26.0461 13.493 26.8577 10.782 26.8577C8.07109 26.8577 5.51404 26.0461 3.58124 24.5724C1.58454 23.0489 0.484375 21.0041 0.484375 18.8137C0.484375 16.7095 1.49929 14.7399 3.34922 13.2377C2.39821 12.1097 1.639 10.5601 1.21517 8.84592C0.755059 6.98386 0.730614 5.11863 1.14652 3.59428C1.60664 1.9094 2.55369 0.809064 3.8125 0.49662C4.04294 0.439668 4.28129 0.4104 4.52041 0.4104C5.66949 0.4104 6.86203 1.07802 7.87931 2.28989C8.82795 3.41946 9.58006 4.97383 9.99835 6.66508C10.3488 8.08337 10.4458 9.50645 10.288 10.7776C10.4522 10.7713 10.6163 10.7681 10.7812 10.7681C10.9462 10.7681 11.1111 10.7713 11.2745 10.7776C11.1167 9.50566 11.2137 8.08261 11.5642 6.66508C11.9825 4.97383 12.7346 3.42025 13.6832 2.28989C14.7005 1.07802 15.893 0.4104 17.0421 0.4104C17.2812 0.4104 17.5196 0.439668 17.75 0.49662C19.0104 0.808272 19.9575 1.90861 20.4176 3.59428ZM8.4578 7.04714C8.09715 5.5877 7.46024 4.26193 6.6655 3.31427C5.96548 2.48051 5.18414 2.00196 4.52199 2.00196C4.41151 2.00196 4.30182 2.01539 4.19605 2.04149C3.52994 2.20684 2.97827 2.92586 2.68077 4.01432C2.33506 5.27998 2.36271 6.85966 2.75889 8.46231C3.14244 10.0135 3.8259 11.3899 4.6688 12.332C5.85892 11.6454 7.21638 11.1723 8.65983 10.9382C8.86582 9.78016 8.79717 8.41957 8.4578 7.04714ZM12.0566 12.4293C11.6383 12.3842 11.2137 12.3605 10.7828 12.3605C10.3527 12.3605 9.92732 12.3834 9.50904 12.4293L9.40881 12.4412C7.76725 12.635 6.23934 13.176 4.9892 14.0043L4.97106 14.0161C4.82504 14.1134 4.68219 14.2154 4.5433 14.3207C2.95066 15.5357 2.07305 17.1312 2.07305 18.8129C2.07305 20.4946 2.95066 22.0901 4.5433 23.3052C6.20067 24.5692 8.41597 25.2653 10.782 25.2653C13.1473 25.2653 15.3634 24.5692 17.0208 23.3052C18.6134 22.0901 19.491 20.4946 19.491 18.8129C19.491 17.1312 18.6134 15.5357 17.0208 14.3207C16.8819 14.2147 16.7398 14.1134 16.593 14.0161L16.5749 14.0043C15.3248 13.1752 13.7969 12.635 12.1553 12.4412L12.0566 12.4293ZM17.0445 2.00196C16.3823 2.00196 15.601 2.48051 14.901 3.31427C14.1054 4.26193 13.4693 5.5877 13.1086 7.04714C12.7693 8.41957 12.7006 9.77936 12.9066 10.9382C14.3501 11.1723 15.7076 11.6454 16.8977 12.332C17.7413 11.3899 18.424 10.0135 18.8076 8.46231C19.2038 6.85966 19.2314 5.27998 18.8857 4.01432C18.5882 2.92586 18.0357 2.20684 17.3704 2.04149C17.2647 2.01539 17.155 2.00196 17.0445 2.00196Z" fill="white"/>
</svg>
