<svg width="205" height="52" viewBox="0 0 205 52" fill="none" xmlns="http://www.w3.org/2000/svg">
<g id="CARMELLA Black 1" clip-path="url(#clip0_99_877)">
<g id="Layer 2">
<g id="Layer 1">
<path id="Vector" d="M58.9784 50.1367C60.0232 50.8581 61.2659 51.2351 62.534 51.2155C64.1839 51.2155 65.1649 50.5592 65.1649 49.918C65.1649 49.1372 64.5372 48.8769 62.4776 48.9674C60.3578 49.0391 59.0686 48.5186 59.0686 47.3908C59.0686 46.263 60.4104 45.6481 62.4738 45.6481C63.5104 45.607 64.5416 45.8166 65.4806 46.2592V46.9796C64.5469 46.4936 63.502 46.2633 62.4513 46.312C60.9779 46.312 59.9556 46.7118 59.9556 47.387C59.9556 47.9113 60.5457 48.296 62.4889 48.2017C64.3681 48.1225 66.0557 48.3677 66.0557 49.9142C66.0557 51.0986 64.3982 51.9209 62.5152 51.9209C61.2684 51.9244 60.0429 51.5964 58.9634 50.9703L58.9784 50.1367Z" fill="#231F20"/>
<path id="Vector_2" d="M71.9265 45.7349H72.806V48.3564H75.1626L77.6657 45.7349H78.7783L75.8429 48.7034L78.8647 51.8303H77.7296L75.1438 49.0768H72.806V51.8303H71.9265V45.7349Z" fill="#231F20"/>
<path id="Vector_3" d="M85.491 45.7349H84.6152V51.8303H85.491V45.7349Z" fill="#231F20"/>
<path id="Vector_4" d="M91.6849 45.5652H91.7751L97.4016 50.4272H97.4167V45.7349H98.1909V52.0001H98.1007L92.4742 47.1456H92.4592V51.8304H91.6849V45.5652Z" fill="#231F20"/>
<path id="Vector_5" d="M108.113 45.6406C108.962 45.6097 109.802 45.8189 110.538 46.2441V47.1003C109.848 46.5802 109.002 46.3138 108.14 46.3459C106.26 46.3459 105.031 47.2851 105.031 48.7637C105.031 50.2423 106.215 51.1665 108.245 51.1665C108.714 51.1652 109.181 51.1056 109.636 50.9892L109.136 51.8115C108.805 51.8616 108.471 51.8881 108.136 51.8907C105.625 51.8907 104.156 50.5743 104.156 48.7637C104.156 46.8778 105.708 45.6255 108.113 45.6255" fill="#231F20"/>
<path id="Vector_6" d="M118.788 45.5652H118.829L122.647 51.8304H121.734L120.919 50.4838H116.683L115.867 51.8304H114.969L118.788 45.5652ZM120.524 49.8388L118.799 47.0023L117.077 49.8388H120.524Z" fill="#231F20"/>
<path id="Vector_7" d="M128.342 45.7386C129.894 45.7386 130.747 45.6858 132.333 45.6858C134.051 45.6858 135.34 46.5797 135.34 47.7377C135.34 48.7033 134.404 49.5143 133.156 49.6991L135.265 51.8303H134.081L132.202 49.7406H129.217V51.8303H128.349L128.342 45.7386ZM132.585 49.0805C133.694 49.0805 134.464 48.4318 134.464 47.7679C134.464 47.104 133.652 46.41 132.371 46.41C131.089 46.41 130.187 46.459 129.214 46.459V49.0692C129.743 49.0692 131.469 49.0692 132.596 49.0692" fill="#231F20"/>
<path id="Vector_8" d="M141.29 45.7349H147.277V46.4553H142.169V48.4507H146.758V49.1183H142.169V51.1137H147.277V51.8303H141.29V45.7349Z" fill="#231F20"/>
<path id="Vector_9" d="M21.4009 12.0702C20.8367 11.5079 20.2055 11.0176 19.5216 10.6104C18.7913 10.174 18.0241 9.80288 17.229 9.50147C16.4227 9.19273 15.5916 8.95422 14.7446 8.78858C13.9076 8.62413 13.0567 8.54076 12.2038 8.53963C11.254 8.55933 10.3136 8.73255 9.41878 9.05261C8.315 9.44113 7.31915 10.0876 6.51346 10.9386C5.50229 12.0355 4.72245 13.3262 4.22077 14.7332C3.59686 16.3601 3.27238 18.4246 3.24732 20.9267C3.27488 23.4413 3.59937 25.4995 4.22077 27.1014C4.72067 28.5103 5.50069 29.8026 6.51346 30.8997C7.31915 31.7507 8.315 32.3972 9.41878 32.7857C10.3084 33.1067 11.2437 33.2825 12.1888 33.3062C13.0417 33.3051 13.8925 33.2217 14.7295 33.0573C15.5769 32.8933 16.4083 32.6548 17.2139 32.3444C18.0091 32.0429 18.7763 31.6719 19.5066 31.2354C20.1904 30.8282 20.8216 30.3379 21.3859 29.7757L22.224 30.3905C20.9999 31.6177 19.5549 32.6007 17.9656 33.2873C16.3276 33.9947 14.5621 34.3568 12.7789 34.351C12.2677 34.351 11.595 34.351 10.7531 34.2945C9.84881 34.2475 8.95192 34.106 8.077 33.872C7.08199 33.608 6.12553 33.2149 5.23181 32.7027C4.22095 32.117 3.33673 31.3348 2.63093 30.4018C1.78558 29.2572 1.1493 27.9712 0.751676 26.6035C0.216527 24.7602 -0.0369231 22.8462 -2.4627e-05 20.9267C-0.0465957 19.0147 0.19802 17.1067 0.725366 15.2688C1.12775 13.9111 1.76376 12.6345 2.60462 11.4968C3.31145 10.5648 4.19547 9.78277 5.2055 9.19595C6.10178 8.68433 7.05734 8.28528 8.05069 8.00779C8.92388 7.76263 9.8213 7.61463 10.7267 7.56647C11.5686 7.52875 12.2301 7.50989 12.7526 7.50989C14.5452 7.4964 16.3212 7.85468 17.9694 8.56226C19.5586 9.24886 21.0037 10.2319 22.2278 11.4591L21.4009 12.0702Z" fill="#231F20"/>
<path id="Vector_10" d="M46.0004 7.5061H42.5614L23.1337 34.351H24.2763L29.8125 26.6827L30.6168 25.6077L42.5576 9.11672L42.6177 25.6077L42.614 26.6827L42.6215 34.351H46.0981L46.0004 7.5061Z" fill="#231F20"/>
<path id="Vector_11" d="M50.5369 34.351V7.5061H60.5495C62.048 7.55304 63.5249 7.87786 64.9056 8.46418C65.4674 8.70951 65.9996 9.01829 66.4917 9.38453C67.0154 9.77432 67.4789 10.2395 67.8673 10.7651C68.2863 11.3508 68.6146 11.9968 68.8408 12.6812C69.1073 13.5118 69.2344 14.3812 69.2166 15.2537C69.2504 16.4302 68.9701 17.5945 68.4048 18.6258C67.9295 19.4762 67.3087 20.2359 66.5706 20.8701C65.9749 21.386 65.3124 21.8186 64.6012 22.1563C64.2099 22.3449 63.8084 22.5111 63.3985 22.6542C64.1673 23.0237 64.8757 23.5083 65.4995 24.0913C66.2381 24.7819 66.8634 25.5852 67.3524 26.4714C67.9453 27.539 68.3952 28.6804 68.6904 29.8662C69.0557 31.3323 69.2301 32.8399 69.2091 34.351H65.9956C65.9956 31.7936 65.7538 29.7681 65.2702 28.2744C64.9174 27.0509 64.3484 25.9011 63.5901 24.8797C63.1094 24.2278 62.4719 23.7087 61.7372 23.3709C61.3548 23.1991 60.9497 23.0835 60.5345 23.0276H53.7692V34.351H50.5369ZM60.2789 21.9262C60.7905 21.8985 61.2962 21.8021 61.7823 21.6396C62.4701 21.4201 63.1085 21.0677 63.6616 20.6023C64.3267 20.0364 64.8669 19.3376 65.2476 18.5504C65.7281 17.5203 65.9575 16.3903 65.9167 15.2537C65.9167 13.6657 65.6235 12.4285 65.0372 11.5308C64.5496 10.7378 63.8986 10.0587 63.1278 9.53918C62.2641 9.01869 61.2989 8.69067 60.2977 8.57734H53.7842V21.9262H60.2789Z" fill="#231F20"/>
<path id="Vector_12" d="M85.7314 7.5061H82.2924L72.4714 34.351H73.6178L76.4066 26.6827L76.8275 25.6077L82.8637 9.11672L88.8247 25.6077L89.208 26.6827L91.9593 34.351H95.4359L85.7314 7.5061Z" fill="#231F20"/>
<path id="Vector_13" d="M123.256 7.5061V34.351H120.009V10.4595L110.684 34.351H109.575H109.538L100.329 10.3426V34.351H99.2583V7.5061H102.697L111.297 29.9039L120.009 7.5061H123.256Z" fill="#231F20"/>
<path id="Vector_14" d="M143.169 8.58111H132.239V18.8559V19.9309V33.276H143.169V34.351H128.988V7.5061H143.169V8.58111Z" fill="#231F20"/>
<path id="Vector_15" d="M151.193 7.5061V33.276H162.123V34.351H147.946V7.5061H151.193Z" fill="#231F20"/>
<path id="Vector_16" d="M169.193 7.5061V33.276H180.122V34.351H165.942V7.5061H169.193Z" fill="#231F20"/>
<path id="Vector_17" d="M195.292 7.5061L205 34.351H201.52L198.768 26.6827H185.967L183.178 34.351H182.032L191.853 7.5061H195.292ZM186.388 25.6114H198.389L192.435 9.11672L186.388 25.6114Z" fill="#231F20"/>
<path id="Vector_18" d="M55.9265 21.9338H31.9811V22.956H55.9265V21.9338Z" fill="#231F20"/>
<path id="Vector_19" d="M88.9224 21.9338H77.0831V22.956H88.9224V21.9338Z" fill="#231F20"/>
<path id="Vector_20" d="M141.113 20.3157H129.274V21.3379H141.113V20.3157Z" fill="#231F20"/>
<path id="Vector_21" d="M131.709 0H135.017L137.448 4.02089H136.456L131.709 0Z" fill="#231F20"/>
</g>
</g>
</g>
<defs>
<clipPath id="clip0_99_877">
<rect width="205" height="52" fill="white"/>
</clipPath>
</defs>
</svg>
