<svg width="98" height="25" viewBox="0 0 98 25" fill="none" xmlns="http://www.w3.org/2000/svg">
<path id="Vector" d="M34.68 3.82107H30.6585V22.6536H34.44C36.0555 22.6536 37.2945 22.2358 38.1555 21.3981C39.0172 20.5603 39.4477 19.2606 39.4477 17.4966V8.68782C39.4477 7.13682 39.0442 5.93757 38.2357 5.09082C37.4272 4.24557 36.243 3.82107 34.68 3.82107ZM36.7305 17.7606C36.7305 18.5713 36.5715 19.1668 36.2505 19.5471C35.9317 19.9266 35.3895 20.1156 34.626 20.1156H33.3735V6.36057H34.626C35.4247 6.36057 35.9752 6.56307 36.2782 6.96807C36.579 7.37382 36.7305 7.94682 36.7305 8.68782V17.7606ZM44.7682 3.82107H41.9925V22.6536H44.7682V3.82107ZM54.7927 4.84632C54.3587 4.47934 53.863 4.19215 53.3287 3.99807C52.8094 3.80696 52.2606 3.70797 51.7072 3.70557C51.1535 3.70695 50.6043 3.80597 50.085 3.99807C49.5569 4.18757 49.0693 4.47511 48.648 4.84557C48.2077 5.23482 47.8575 5.72007 47.5935 6.30282C47.3295 6.88632 47.1967 7.55757 47.1967 8.31657V18.2758C47.1967 19.0701 47.3295 19.7503 47.5935 20.3143C47.8375 20.854 48.1975 21.3331 48.648 21.7176C49.0635 22.1023 49.5522 22.3995 50.085 22.5913C50.6046 22.7825 51.1536 22.8815 51.7072 22.8838C52.2517 22.8838 52.7932 22.7863 53.3287 22.5913C53.8681 22.3962 54.365 22.0996 54.7927 21.7176C55.2142 21.3471 55.5577 20.8791 55.8217 20.3151C56.0857 19.7503 56.2185 19.0701 56.2185 18.2751V12.3426H51.39V14.7253H53.5275V18.2751C53.5275 18.9276 53.3475 19.4098 52.9852 19.7173C52.6308 20.0244 52.1754 20.1895 51.7065 20.1808C51.2374 20.1897 50.7816 20.0246 50.427 19.7173C50.067 19.4083 49.887 18.9283 49.887 18.2751V8.31657C49.887 7.66407 50.067 7.18332 50.427 6.87432C50.7816 6.56712 51.2374 6.40202 51.7065 6.41082C52.1985 6.41082 52.6252 6.56607 52.9852 6.87432C53.3452 7.18332 53.5267 7.66482 53.5267 8.31657V9.26907H56.2177V8.31657C56.2177 7.55757 56.085 6.88632 55.821 6.30282C55.5798 5.75288 55.2305 5.25744 54.7927 4.84632ZM61.539 3.82107H58.764V22.6536H61.539V3.82107ZM64.2 22.6536H66.8775V14.6121H71.4975V12.0726H66.8775V6.36057H72.18V3.82107H64.2V22.6536ZM76.806 3.82107H74.0302V22.6536H76.806V3.82107ZM85.452 4.07757C84.8895 3.83007 84.27 3.70632 83.592 3.70632C82.7895 3.70632 82.0972 3.84282 81.5175 4.11657C80.9636 4.37104 80.474 4.74681 80.085 5.21607C79.6809 5.69689 79.3806 6.25611 79.203 6.85857C79.0036 7.51109 78.9043 8.19004 78.9082 8.87232C78.9082 10.0558 79.1085 11.0398 79.5105 11.8273C79.9125 12.6133 80.7007 13.2448 81.8782 13.7203L83.8305 14.5153C84.1687 14.6563 84.441 14.7891 84.648 14.9113C84.8477 15.0299 85.0171 15.1931 85.143 15.3883C85.2502 15.5833 85.3207 15.8383 85.3575 16.1563C85.3927 16.4736 85.41 16.8808 85.41 17.3743C85.41 17.7973 85.3972 18.1828 85.3702 18.5271C85.3432 18.8713 85.2585 19.1676 85.1152 19.4151C84.9727 19.6626 84.771 19.8523 84.513 19.9843C84.2535 20.1156 83.8935 20.1823 83.4285 20.1823C82.7332 20.1823 82.2382 19.9843 81.9435 19.5861C81.653 19.2008 81.4977 18.7305 81.5017 18.2481V17.3998H78.7717V18.4063C78.7717 19.0423 78.8917 19.6288 79.1325 20.1688C79.3725 20.7073 79.698 21.1798 80.1097 21.5863C80.5192 21.9913 81.0097 22.3108 81.5812 22.5388C82.169 22.7719 82.7962 22.8891 83.4285 22.8838C84.303 22.8838 85.0432 22.7413 85.6507 22.4593C86.2575 22.1773 86.748 21.7888 87.123 21.2938C87.48 20.8168 87.738 20.2393 87.8985 19.5591C88.0582 18.8788 88.1385 18.1416 88.1385 17.3466C88.1385 16.6588 88.1032 16.0453 88.0312 15.5061C87.9709 15.0075 87.8353 14.521 87.6292 14.0631C87.4096 13.6498 87.1095 13.2846 86.7465 12.9891C86.3715 12.6801 85.881 12.4108 85.2742 12.1806L83.187 11.3593C82.8292 11.2183 82.5495 11.0766 82.344 10.9356C82.1511 10.8066 81.9909 10.6346 81.876 10.4331C81.7653 10.2278 81.6972 10.0023 81.6757 9.77007C81.6487 9.52257 81.636 9.21357 81.636 8.84232C81.636 8.52507 81.663 8.21982 81.7162 7.92882C81.7687 7.63707 81.8685 7.37757 82.011 7.14732C82.1535 6.93507 82.341 6.75882 82.5735 6.61782C82.8052 6.47682 83.1082 6.40482 83.4832 6.40482C84.1785 6.40482 84.6735 6.62982 84.9682 7.08057C85.263 7.53057 85.41 8.06532 85.41 8.68407V9.29307H88.14V7.96857C88.14 6.87432 87.7297 5.90232 86.91 5.05407C86.4876 4.64218 85.9935 4.31174 85.452 4.07757ZM88.719 3.82107V6.36057H91.8682V22.6536H94.5907V6.36057H97.74V3.82107H88.719ZM0.23999 24.9501H27.5347V0.950073L0.23999 0.967323V24.9501ZM15.4132 16.6078L17.9707 17.6098C17.9707 18.4123 18.1275 19.0048 18.4432 19.3851C18.7582 19.7601 19.2915 19.9498 20.0475 19.9498H21.2827V6.27057H20.0475C19.257 6.27057 18.7155 6.47457 18.4177 6.87507C18.1192 7.27932 17.9707 7.84857 17.9707 8.58507L15.4132 9.59382V8.65482C15.4132 7.15482 15.8107 5.98482 16.6027 5.14557C17.3947 4.30932 18.5452 3.89307 20.0437 3.89307H23.9475V22.3228H20.2762C18.7065 22.3228 17.5042 21.9103 16.668 21.0936C15.8317 20.2731 15.4132 18.9996 15.4132 17.2738V16.6078ZM3.82574 3.90732H7.73099C9.23099 3.90732 10.377 4.32732 11.169 5.16132C11.961 5.99907 12.3585 7.16832 12.3585 8.66757V10.7976L9.79949 11.8063V8.59857C9.79949 7.86132 9.65324 7.29357 9.35474 6.88782C9.05624 6.48732 8.51399 6.28332 7.72499 6.28332H6.48974V19.9528H7.72499C8.47874 19.9528 9.01424 19.7631 9.32999 19.3881C9.64499 19.0078 9.79949 18.4176 9.79949 17.6143V14.4081L12.3585 15.4116V17.2813C12.3585 19.0048 11.9422 20.2776 11.1045 21.0988C10.2682 21.9141 9.06599 22.3273 7.49624 22.3273H3.82649L3.82574 3.90732Z" fill="white"/>
</svg>
