<svg width="135" height="24" viewBox="0 0 135 24" fill="none" xmlns="http://www.w3.org/2000/svg">
<path id="Vector" d="M90.1941 0.101807H85.8562V8.26097C85.2365 2.16732 82.9642 0.101807 79.6591 0.101807C77.1803 0.101807 75.3212 1.34108 74.1851 4.54281C73.3587 1.34108 70.9833 0.101807 67.0584 0.101807H62.7205V8.26097H62.6171C61.9975 2.16732 59.7253 0.101807 56.4202 0.101807C53.2184 0.101807 50.9461 2.16732 50.223 8.26097H50.1198V0.101807H44.5424L42.4768 12.2889H42.3734L40.6177 0.101807H34.8337V4.74942C34.3173 1.96072 32.6647 0.101807 29.5661 0.101807C26.1578 0.101807 24.2987 2.47714 23.9889 5.47244C23.0592 1.44446 20.9937 0.101807 18.3083 0.101807C15.3129 0.101807 13.1439 1.8575 12.3177 6.91831C12.1112 3.30337 11.0784 0.101807 6.74043 0.101807C3.332 0.101807 0.543213 3.20016 0.543213 11.9791C0.543213 19.5186 2.09252 23.8564 6.74043 23.8564C10.8717 23.8564 12.0078 20.5515 12.3177 17.2464C13.1439 22.204 15.3129 23.8564 18.3083 23.8564C21.2001 23.8564 23.2658 22.204 24.1953 17.5564C24.4019 20.5515 25.538 23.8564 29.7727 23.8564C32.1483 23.8564 33.9042 22.8236 34.8337 21.0677V23.7532H38.0355V6.40189H38.1387L41.0307 23.7532H43.4063L46.2983 6.40189H46.4015V23.7532H50.223V15.5939H50.3264C50.9461 21.6875 53.2182 23.7532 56.5235 23.7532C59.7253 23.7532 61.9975 21.6875 62.7205 15.5939H62.8237V23.7532H67.1616V14.2512H68.9176C71.0865 14.2512 72.5324 13.425 73.4621 12.0823C73.4621 20.9645 75.9409 23.7532 79.7624 23.7532C82.9642 23.7532 85.2365 21.6875 85.9594 15.5939V23.7532H95.7715V20.1383H90.2975V0.101807H90.1941ZM8.806 14.7677C8.70278 18.0726 8.39296 20.1383 6.94687 20.1383C5.60417 20.1383 5.19113 19.312 5.19113 11.7725C5.19113 4.12978 6.12061 3.61336 7.05026 3.61336C8.08313 3.61336 8.5994 5.05923 8.5994 8.77739L12.2144 8.674C12.1112 9.70684 12.1112 10.7397 12.1112 11.9791C12.1112 13.1152 12.1112 14.148 12.2144 15.0775L8.806 14.7677ZM19.9608 14.3546C19.9608 19.312 19.341 20.2415 18.4115 20.2415C17.3786 20.2415 16.8622 19.2088 16.8622 14.3546V9.50041C16.8622 4.54281 17.4818 3.61336 18.4115 3.61336C19.4444 3.61336 19.9608 4.64603 19.9608 9.50041V14.3546ZM29.9793 20.2417C28.1202 20.2417 28.1202 17.9694 28.1202 16.7299H24.4019C24.6085 15.3873 24.7118 13.7348 24.7118 11.8757C24.7118 10.9463 24.7118 10.0167 24.6085 9.19042C26.4677 13.425 31.8385 14.6644 31.8385 18.0726C31.8385 18.899 31.4252 20.2417 29.9793 20.2417ZM27.9136 5.67887C27.9136 4.4396 28.5334 3.61336 29.5661 3.61336C31.322 3.61336 31.322 5.78225 31.322 7.02153H34.9371V13.9414C32.8713 10.2233 27.9136 8.77739 27.9136 5.67887ZM58.0728 14.3546C58.0728 19.312 57.4529 20.3449 56.5235 20.3449C55.4906 20.3449 54.9741 19.312 54.9741 14.3546V9.50041C54.9741 4.54281 55.5938 3.50997 56.5235 3.50997C57.5563 3.50997 58.0728 4.54281 58.0728 9.50041V14.3546ZM67.4716 10.8431H67.0584V3.71658H67.3683C68.8143 3.71658 70.157 3.81979 70.157 7.22813C70.157 10.12 69.2274 10.8431 67.4716 10.8431ZM81.2084 14.3546C81.2084 19.312 80.5888 20.3449 79.6591 20.3449C78.6263 20.3449 78.1098 19.312 78.1098 14.3546V9.50041C78.1098 4.54281 78.7295 3.50997 79.6591 3.50997C80.692 3.50997 81.2084 4.54281 81.2084 9.50041V14.3546ZM96.3912 0.101807H100.729V23.7532H96.3912V0.101807ZM113.123 0.101807H101.349V3.71658H105.067V23.7532H109.405V3.71658H113.123V0.101807ZM130.991 0.101807V12.5988H130.888L126.963 0.101807H122.729V20.7579L120.147 0.101807H113.846L110.541 23.7532H114.156L114.776 18.4858H118.288L118.907 23.7532H126.447V9.39702H126.55L131.198 23.7532H134.607V0.101807H130.991ZM115.292 15.0775L116.635 3.71658H116.738L117.978 15.0775H115.292Z" fill="#FFFEFC"/>
</svg>
