<svg width="116" height="24" viewBox="0 0 116 24" fill="none" xmlns="http://www.w3.org/2000/svg">
<path id="Vector" d="M12.2267 23.4417L14.2681 3.25758C14.383 2.22263 14.5843 2.0499 14.9294 2.0499H15.1305V0.900063H11.824V2.0499H12.0253C12.4853 2.0499 12.7153 2.36633 12.6578 3.25758L11.4789 15.3336L10.1277 3.25758C10.0124 2.30889 10.2424 2.0499 10.7604 2.0499H10.8176V0.900063H6.21706V2.0499H6.44744C6.87878 2.0499 6.87878 2.22263 6.96504 3.25758L7.31011 6.33443L6.24588 16.11L5.03856 3.25758C4.89464 2.22263 5.096 2.0499 5.55595 2.0499H5.6132V0.900063H0.9552V2.0499H1.18538C1.67416 2.0499 1.70278 2.22263 1.81787 3.25758L3.88806 23.4417H6.87857L8.05748 13.0619L9.26502 23.4417H12.2267ZM32.0384 10.2159C32.0384 8.80703 32.0384 8.31807 32.9297 8.31807C33.5336 8.31807 33.5336 8.54804 33.5336 9.7269V21.7741C33.5336 22.2056 33.3896 22.2917 33.1597 22.2917H33.0162V23.4415H37.6453V22.2917H37.444C37.1279 22.2917 37.0417 22.1764 37.0417 21.7164V9.09464C37.0417 7.02413 36.6103 6.21894 34.5688 6.21894C33.3896 6.21894 32.5274 6.59281 31.981 7.88635C31.7506 6.73652 31.1469 6.21894 29.5657 6.21894C28.2717 6.21894 27.5816 6.62163 27.0642 7.88635V6.21894L23.0961 6.53537V7.68521H23.2684C23.5272 7.68521 23.7284 7.88635 23.7284 8.51942V21.63C23.7284 22.1476 23.6135 22.2917 23.2684 22.2917H23.0961V23.4415H27.5241V22.2917H27.3518C27.1216 22.2917 27.0642 22.2054 27.0642 21.8601V10.2159C27.0642 8.80703 27.0351 8.31807 27.9264 8.31807C28.5303 8.31807 28.5303 8.54804 28.5303 9.7269V21.7741C28.5303 22.2056 28.3866 22.2917 28.1852 22.2917H27.9841V23.4415H32.5274V22.2917H32.4697C32.1537 22.2917 32.0384 22.1764 32.0384 21.7164V10.2159ZM64.3868 23.4417H69.9367V22.2919H69.5624C69.0738 22.2919 68.9301 22.0903 68.9301 21.0842V12.4008H71.8629V21.084C71.8629 22.0901 71.7192 22.2917 71.2591 22.2917H70.8275V23.4415H76.3484V22.2917H75.8887C75.3993 22.2917 75.3134 22.0901 75.3134 21.084V3.25758C75.3134 2.22263 75.3993 2.0499 75.8887 2.0499H76.3484V0.900063H70.8275V2.0499H71.2591C71.7192 2.0499 71.8629 2.22263 71.8629 3.25758V11.0491H68.9301V3.25758C68.9301 2.22263 69.0738 2.0499 69.5624 2.0499H69.9367V0.900063H64.3868V2.0499H64.8758C65.3359 2.0499 65.4796 2.22263 65.4796 3.25758V21.6588C65.4796 22.1478 65.3359 22.2919 64.8758 22.2919H64.3868V23.4417ZM106.311 23.4417H110.71V22.2919H110.566C110.279 22.2919 110.25 22.2056 110.25 21.8603V10.2159C110.25 8.80703 110.279 8.31807 111.17 8.31807C111.831 8.31807 111.831 8.54804 111.831 9.7269V21.7741C111.831 22.2056 111.717 22.2917 111.515 22.2917H111.314V23.4415H115.972V22.2917H115.771C115.454 22.2917 115.397 22.1764 115.397 21.7164V9.09464C115.397 7.02413 114.879 6.21894 112.866 6.21894C111.544 6.21894 110.796 6.62163 110.25 7.88635V0.55481L106.023 0.900063V2.0499H106.455C106.742 2.0499 106.915 2.22263 106.915 2.85529V21.63C106.915 22.1476 106.828 22.2917 106.455 22.2917H106.311V23.4417ZM18.4375 23.6428C22.1183 23.6428 22.6357 20.5664 22.6357 14.9309C22.6357 9.26696 22.0893 6.21894 18.4375 6.21894C14.7861 6.21894 14.2399 9.26696 14.2399 14.9309C14.2397 20.5664 14.7573 23.6428 18.4375 23.6428ZM46.3004 23.4417H50.7284V22.2919H50.5269C50.2687 22.2919 50.2687 22.2056 50.2687 21.8603V10.2159C50.2687 8.80703 50.2687 8.31807 51.1882 8.31807C51.8209 8.31807 51.8499 8.54804 51.8499 9.7269V21.7741C51.8499 22.2056 51.6776 22.2917 51.5046 22.2917H51.3031V23.4415H55.9615V22.2917H55.7603C55.4439 22.2917 55.358 22.1764 55.358 21.7164V9.09464C55.358 7.02413 54.869 6.21894 52.827 6.21894C51.5338 6.21894 50.757 6.62163 50.2687 7.88635V6.21894L46.0128 6.53537V7.68521H46.4729C46.7319 7.68521 46.9327 7.88635 46.9327 8.51942V21.63C46.9327 22.1476 46.8182 22.2917 46.4729 22.2917H46.3006V23.4417H46.3004ZM87.1025 23.6428C88.6265 23.6428 89.2015 22.8957 89.5176 22.004C89.805 23.3266 90.1214 23.6428 91.8466 23.6428C93.8593 23.6428 94.1183 22.4356 94.0897 20.0776H93.1406C93.1406 21.7743 93.1117 21.9466 92.7953 21.9466C92.5079 21.9466 92.5079 21.8029 92.5079 20.8538V9.66946C92.5079 7.398 91.7607 6.21914 89.1153 6.21914C87.0162 6.21914 84.9458 6.8518 85.0605 9.12306C85.1184 10.1584 85.5211 11.2508 86.6135 11.1932C87.6197 11.1357 88.0799 10.5897 88.0799 9.75552C88.0799 9.1807 87.6483 8.23161 86.9588 7.71403C87.2174 7.59915 87.6197 7.48366 88.2812 7.48366C89.0292 7.48366 89.1725 8.05888 89.1725 9.15148V12.2854C85.3484 13.5793 84.5433 14.0969 84.5433 18.8986C84.5433 22.3493 85.3776 23.6428 87.1025 23.6428ZM80.518 23.6428C83.3642 23.6428 84.0255 22.7804 83.8818 18.0652H82.7027C82.7027 21.8029 82.5878 22.0903 81.2654 22.0903C79.684 22.0903 79.684 21.4002 79.684 14.9889V14.471H84.2839C84.2839 8.00204 83.5656 6.21934 80.5176 6.21934C77.7573 6.21934 76.3196 7.91598 76.3196 15.0462C76.32 21.8315 77.4124 23.6719 80.518 23.6428ZM42.3033 23.6428C45.0929 23.6428 45.8691 22.7804 45.7538 18.0652H44.5755C44.5755 21.8029 44.403 22.0903 43.0513 22.0903C41.3548 22.0903 41.4411 21.4002 41.4411 14.9889V14.471H45.8979C45.8979 8.00204 45.2942 6.21934 42.3035 6.21934C39.515 6.21934 38.0771 7.91598 38.0771 15.0462C38.0769 21.8315 39.1693 23.6719 42.3033 23.6428ZM94.7228 23.4417H99.3236V22.2919H98.9783C98.6905 22.2919 98.5756 22.1478 98.5756 21.688V0.55481L94.2913 0.900063V2.0499H94.7802C95.0677 2.0499 95.1826 2.16478 95.1826 2.62512V21.7455C95.1826 22.1766 95.1537 22.2919 94.9526 22.2919H94.7226V23.4417H94.7228ZM61.1375 23.6428C63.2369 23.6428 64.3297 22.2626 64.3297 20.1929C64.3297 15.3338 59.9301 12.5159 59.9301 9.03679C59.9301 7.97282 60.304 7.65659 61.0516 7.65659C62.144 7.65659 62.3168 8.11672 62.5179 9.75552L62.6901 11.3655H63.9552V6.36264H62.9495C62.8916 6.99571 62.7483 7.22547 62.6901 7.13901C62.3744 6.76534 61.6264 6.21914 60.3903 6.21914C58.5499 6.21914 56.9398 7.05295 56.9398 9.78434C56.9398 14.0396 61.3104 17.2888 61.3104 20.5378C61.3104 21.9466 60.9944 22.1766 59.9878 22.1766C58.9816 22.1766 58.723 21.7168 58.5219 19.5891L58.3777 18.1799H57.0551V23.4417H58.205C58.2917 22.8665 58.4932 22.493 58.6652 22.6653C59.0388 23.0968 59.4412 23.6428 61.1375 23.6428ZM100.186 19.8767C100.186 22.6079 100.589 23.6428 103.291 23.6428C105.189 23.6428 105.62 22.8957 105.62 20.7968V17.9499H104.47V20.9405C104.47 21.9466 104.384 22.0615 104.01 22.0615C103.636 22.0615 103.55 21.9466 103.55 21.0554V7.65659H105.649V6.36264H103.579V2.0499H102.4C101.566 5.87429 100.848 6.36264 99.7261 6.36264H99.41V7.62777H100.186L100.186 19.8767ZM18.4375 22.1764C17.6329 22.1764 17.6329 21.7166 17.6329 14.9309C17.6329 8.11672 17.6329 7.65659 18.4375 7.65659C19.2427 7.65659 19.2427 8.11672 19.2427 14.9309C19.2427 21.7455 19.2427 22.1764 18.4375 22.1764ZM56.3646 7.08197C59.2396 4.95382 59.815 3.34384 58.8659 1.87758C58.3483 1.07259 57.1692 0.555011 56.3067 1.27373C55.2713 2.13616 55.5303 3.63166 57.457 4.49428C57.1118 4.89658 56.3067 5.67335 55.6454 6.33463L56.3646 7.08197ZM88.4828 21.63C87.7926 21.63 87.7926 20.9117 87.7926 18.6402C87.7926 14.4998 87.7926 13.9534 89.1725 13.2058V20.3076C89.1725 21.3714 89.0292 21.63 88.4828 21.63ZM41.4409 13.2635C41.4983 7.88656 41.5848 7.62797 42.3323 7.62797C43.0511 7.62797 42.9939 7.91578 42.9939 13.2635H41.4409ZM79.6844 13.2635C79.7707 7.88656 79.8281 7.62797 80.5757 7.62797C81.3233 7.62797 81.208 7.91578 81.208 13.2635H79.6844Z" fill="#FFFEFC"/>
</svg>
