<svg width="155" height="25" viewBox="0 0 155 25" fill="none" xmlns="http://www.w3.org/2000/svg">
<g id="Img" clip-path="url(#clip0_99_96)">
<g id="Group">
<path id="Vector" fill-rule="evenodd" clip-rule="evenodd" d="M0.98999 1.74709H4.80899V24.1601H0.98999V1.74709ZM31.9315 16.0811L16.417 1.40159V24.1596H20.089V9.57859L35.6035 24.5061V1.74709H31.9315V16.0811ZM55.534 11.6756L51.8995 10.3611C50.0265 9.70509 48.961 9.04709 48.961 7.40509C48.961 5.58009 50.651 4.70359 52.927 4.70359C55.5705 4.70359 57.6275 5.68909 59.4995 7.11309V3.20659C57.701 2.03909 55.3875 1.38159 52.8535 1.38159C48.704 1.38159 45.2525 3.53509 45.2525 7.47759C45.2525 11.1641 47.529 12.7706 50.54 13.8656L53.808 15.0341C55.8275 15.8006 56.966 16.4946 56.966 18.2461C56.966 20.2536 55.1665 21.1666 52.596 21.1666C49.953 21.1666 47.492 20.2181 45.4355 18.5746V22.5536C47.015 23.6491 49.585 24.5251 52.596 24.5251C57.187 24.5251 60.6745 22.2611 60.6745 18.1731C60.6745 14.9246 59.0595 12.9531 55.534 11.6756ZM69.278 1.74709H73.0965V24.1601H69.278V1.74709ZM93.5425 1.74759H84.8945V24.1601H93.5425C100.189 24.1601 104.485 19.7796 104.485 12.9531C104.485 6.12759 100.188 1.74759 93.5425 1.74759ZM93.3955 20.7661H88.714V5.10559H93.3955C98.131 5.10559 100.665 8.13509 100.665 12.9531C100.665 17.7346 98.1315 20.7661 93.3955 20.7661ZM113.152 24.1601H126.829V20.7661H116.897V13.8201H125.801V10.4981H116.897V5.10509H126.829V1.74709H113.152V24.1601ZM146.649 14.9246C150.211 14.3771 151.89 12.2231 151.89 8.46309C151.89 4.08309 148.88 1.74709 144.216 1.74709H136.037V24.1601H139.855V15.0706H142.573L150.422 24.1601H154.755L146.649 14.9246ZM139.856 11.8946V5.03209H144.142C146.676 5.03209 148.108 6.38259 148.108 8.46309C148.108 10.5441 146.676 11.8946 144.142 11.8946H139.856Z" fill="#FFFEFC"/>
</g>
</g>
<defs>
<clipPath id="clip0_99_96">
<rect width="154" height="24" fill="white" transform="translate(0.98999 0.950073)"/>
</clipPath>
</defs>
</svg>
