<svg width="144" height="25" viewBox="0 0 144 25" fill="none" xmlns="http://www.w3.org/2000/svg">
<g id="Img" clip-path="url(#clip0_99_89)">
<g id="Group">
<path id="Vector" d="M15.0528 13.2659C16.1803 13.3561 17.1275 13.8072 17.9394 14.6642C18.7512 15.5213 19.1571 16.6941 19.1571 18.1827C19.1571 19.987 18.5708 21.4755 17.353 22.5581C16.1352 23.6407 14.4213 24.182 12.1211 24.182H1.02576V2.80083H12.076C14.0154 2.80083 15.594 3.34212 16.7667 4.37961C17.9394 5.4622 18.5257 6.86055 18.5257 8.61976C18.5257 9.973 18.1649 11.0105 17.3981 11.8224C16.6314 12.6344 15.8646 13.0403 15.0077 13.1306L15.0528 13.2659ZM6.3028 11.642H10.9033C11.6701 11.642 12.3015 11.4165 12.7976 10.9654C13.2487 10.5143 13.5193 9.973 13.5193 9.20616C13.5193 8.52954 13.2938 8.03336 12.8427 7.62738C12.3917 7.22141 11.8054 7.04098 11.1288 7.04098H6.3028V11.642ZM11.1739 19.9419C11.9858 19.9419 12.6623 19.7163 13.1133 19.3104C13.5644 18.9044 13.7899 18.318 13.7899 17.5511C13.7899 16.8294 13.5644 16.2881 13.0682 15.8822C12.6172 15.4762 11.9858 15.2506 11.2641 15.2506H6.3028V19.9419H11.1739ZM37.4238 24.182H32.3272V22.6484C31.0643 24.0016 29.3955 24.6782 27.411 24.6782C25.5167 24.6782 24.0283 24.0467 22.9007 22.8288C21.7731 21.6109 21.1868 19.987 21.1868 18.0022V8.16868H26.2383V16.9196C26.2383 17.8669 26.5089 18.6337 27.0051 19.2201C27.5012 19.8065 28.1777 20.0772 28.9896 20.0772C30.027 20.0772 30.8388 19.7163 31.4251 18.9946C32.0115 18.2729 32.2821 17.1452 32.2821 15.6115V8.16868H37.3787L37.4238 24.182ZM53.1648 24.182H39.6339V23.2348L45.9934 12.2284H39.8143V8.16868H53.0746V9.11595L46.715 20.1223H53.1197V24.182H53.1648ZM68.8606 24.182H55.3748V23.2348L61.6892 12.2284H55.5101V8.16868H68.7704V9.11595L62.4109 20.1223H68.8155L68.8606 24.182ZM76.4379 11.9578H85.684V16.5588H76.4379V24.2271H71.1608V2.80083H86.4958V7.40184H76.4379V11.9578ZM123.074 17.506H111.348C111.663 19.4908 113.152 20.6185 115.362 20.6185C117.121 20.6185 118.88 19.9419 120.188 18.9044L122.127 22.2875C120.323 23.8212 118.023 24.6782 115.362 24.6782C109.994 24.6782 106.341 21.4304 106.341 16.1979C106.341 13.717 107.153 11.6871 108.777 10.1083C110.4 8.52954 112.43 7.7176 114.82 7.7176C117.121 7.7176 119.06 8.48444 120.639 10.0632C122.217 11.642 123.029 13.6719 123.074 16.243V17.506ZM112.746 12.499C112.114 12.9501 111.663 13.5816 111.438 14.3485H118.023C117.797 13.5365 117.391 12.905 116.805 12.4539C116.219 12.048 115.542 11.8224 114.82 11.8224C114.054 11.8224 113.377 12.048 112.746 12.499ZM104.402 17.506H92.6749C92.9907 19.4908 94.4791 20.6185 96.6891 20.6185C98.4481 20.6185 100.207 19.9419 101.515 18.9044L103.455 22.2875C101.65 23.8212 99.3502 24.6782 96.6891 24.6782C91.3219 24.6782 87.6685 21.4304 87.6685 16.1979C87.6685 13.717 88.4804 11.6871 90.1041 10.1083C91.7278 8.52954 93.7574 7.7176 96.1479 7.7176C98.4481 7.7176 100.388 8.48444 101.966 10.0632C103.545 11.642 104.357 13.6719 104.402 16.243V17.506ZM94.0731 12.499C93.4417 12.9501 92.9907 13.5816 92.7652 14.3485H99.3502C99.1247 13.5365 98.7187 12.905 98.1324 12.4539C97.5461 12.048 96.8695 11.8224 96.1479 11.8224C95.3811 11.8224 94.7046 12.048 94.0731 12.499ZM142.784 24.182H137.688V22.919C136.38 24.0918 134.756 24.6782 132.726 24.6782C130.561 24.6782 128.712 23.8663 127.179 22.2875C125.645 20.7087 124.878 18.6788 124.878 16.1979C124.878 13.717 125.645 11.6871 127.179 10.1083C128.712 8.52954 130.561 7.7176 132.726 7.7176C134.756 7.7176 136.425 8.304 137.688 9.47681V1.22205H142.784V24.182ZM136.56 19.175C137.327 18.4082 137.733 17.4158 137.733 16.1979C137.733 15.0251 137.327 14.0327 136.56 13.2208C135.793 12.4539 134.846 12.048 133.809 12.048C132.681 12.048 131.779 12.4539 131.058 13.2208C130.336 13.9876 129.975 14.98 129.975 16.1979C129.975 17.4158 130.336 18.4533 131.058 19.2201C131.779 19.987 132.681 20.3478 133.809 20.3478C134.846 20.3478 135.748 19.9419 136.56 19.175Z" fill="#FFFEFC"/>
</g>
</g>
<defs>
<clipPath id="clip0_99_89">
<rect width="142.39" height="24" fill="white" transform="translate(0.709961 0.950073)"/>
</clipPath>
</defs>
</svg>
