<svg width="83" height="22" viewBox="0 0 83 22" fill="none" xmlns="http://www.w3.org/2000/svg">
<path id="Vector" fill-rule="evenodd" clip-rule="evenodd" d="M45.0907 13.1049V12.6458H51.4513V12.7808V12.9834V13.1184H49.9389V21.3963H49.6551L49.628 21.2882C49.4527 20.4645 48.6018 20.1809 48.1698 20.1809H48.102H48.0077C47.292 20.207 46.6517 20.5087 45.9899 20.8206L45.9146 20.8561C45.8471 20.8831 45.7827 20.9101 45.7186 20.9371C45.6545 20.9641 45.5904 20.9912 45.523 21.0182C44.8205 21.3558 44.0645 21.6529 43.146 21.6529C38.2304 21.6529 34.6384 17.4126 34.6384 11.4304C34.6384 4.09785 39.4458 0.546325 42.9436 0.546325C43.7132 0.546325 44.213 0.694867 44.888 0.910928L45.1718 0.991951C45.2361 1.01346 45.3036 1.03633 45.3733 1.06013L45.3742 1.06041C45.5235 1.11127 45.6859 1.1664 45.8604 1.22152L46.1305 1.28904C46.3197 1.32955 46.5628 1.37006 46.8462 1.38356C47.427 1.39707 48.102 1.24852 48.3858 0.573333L48.4262 0.49231H48.6557H48.7234V7.91942H48.6557H48.4129L48.3858 7.8114C47.1433 2.86899 45.6173 1.03246 42.9572 1.01896H42.9301C40.7423 1.01896 40.013 2.42336 39.6215 3.17958C38.5816 5.19164 38.3657 9.78296 38.3657 11.1874C38.3657 15.117 38.7166 16.805 39.3784 18.5605C40.0537 20.3565 41.2285 21.2207 42.9975 21.1937C44.6317 21.1667 46.7248 20.4645 46.7248 17.3181V13.1049H45.0907ZM81.9976 13.9692V13.8476H82.3892V21.2747H67.7911V20.7886H69.5737V1.55912H67.5887H65.9142V16.0623C65.9545 18.601 64.2665 21.6664 60.5798 21.6664C55.0838 21.6664 53.2065 18.8035 53.2065 15.1035V1.55912H51.3161V1.28904V1.08649H58.4056V1.28904V1.55912H56.5826V16.7915C56.5826 16.9535 56.704 20.9777 60.7015 21.1262C61.7953 21.1667 62.9971 20.7346 63.8478 19.9244C64.5502 19.2627 65.3605 17.9933 65.4009 15.9272V1.55912H63.8345V1.28904V1.08649H67.5887H67.9938H68.1288H81.5656V7.89243H81.2415L81.2144 7.78439C79.9648 1.45915 77.0721 1.51863 74.1079 1.57959C73.9964 1.58188 73.8851 1.58417 73.7736 1.58613C73.5574 1.59963 73.2064 1.59963 72.9902 1.59963V10.7283H73.139H73.1553C74.7863 10.7283 76.7728 10.7283 77.2036 6.77162L77.2172 6.65008H77.5413V15.3601H77.2172L77.2036 15.2385C76.8891 11.1766 75.0362 11.1959 73.3967 11.2129L73.3654 11.2133C73.3259 11.2137 73.2863 11.2141 73.2468 11.2144H72.9769V20.8021H73.139C73.1977 20.8021 73.2674 20.8029 73.3467 20.8038C74.4885 20.8169 77.6537 20.8533 79.8505 18.8711C81.1873 17.6692 81.903 16.0218 81.9976 13.9692ZM24.2134 0.600351C20.0676 0.600351 15.5167 4.74603 15.5167 11.0793C15.5167 17.4127 20.2162 21.6123 24.2134 21.6123C28.2107 21.6123 32.9102 17.4127 32.9102 11.0793C32.8967 4.74603 28.3594 0.600351 24.2134 0.600351ZM29.048 10.2961V10.4312V10.5257V10.6067V10.7283V10.7688V10.8903V10.9173V11.0523V11.1604C29.048 12.3352 28.9398 16.859 27.7515 19.1141C27.0763 20.424 25.7664 21.1127 24.1864 21.1127C22.6064 21.1127 21.283 20.424 20.6213 19.1141C19.4329 16.859 19.3384 12.3352 19.3384 11.1604V11.0523V10.9173V10.8903V10.7688V10.7283V10.6067V10.5257V10.4312V10.2961V10.2421C19.3789 8.43259 19.6085 5.04311 20.6213 3.05805C21.4315 1.41058 23.0791 1.05948 24.1864 1.05948C25.3072 1.05948 26.9413 1.41058 27.7515 3.05805C28.7642 5.04311 28.9805 8.43259 29.0344 10.2421C29.048 10.2556 29.048 10.2826 29.048 10.2961ZM13.4097 1.08649H17.1234H17.2584V1.54562H15.6109H15.4354L9.507 21.3828H9.39898L1.94461 1.54562H1.75555H0V1.27554V1.08649H6.71163V1.27554V1.54562H5.29366H5.19914L10.5198 16.2918L14.9222 1.54562H13.2747V1.08649H13.4097Z" fill="#FFFEFC"/>
</svg>
